<svg width="100" height="100" viewBox="0 0 100 100" fill="none" xmlns="http://www.w3.org/2000/svg">
<rect width="100" height="100" rx="6" fill="#2E353C"/>
<path d="M25.5482 62.0218C26.4019 63.4696 27.2848 64.8995 28.1964 66.3103C28.6506 67.0201 29.1835 67.93 29.7223 68.5595C30.1993 69.3281 38.6071 80.324 39.1806 81.0144C40.5193 82.8394 42.2165 84.6947 43.6699 86.4327L43.8506 86.6488C45.8596 89.0516 47.8489 91.4307 50.0086 93.699C52.8726 90.6368 55.5438 87.4062 58.2405 84.1924C67.1728 73.5474 80.5668 56.5942 81.8705 42.4699C82.6546 33.9733 79.8394 25.3407 74.5187 18.7976C69.0842 12.1236 61.266 7.92539 52.7887 7.12895C44.3998 6.36077 36.0583 9.04717 29.6284 14.5879C23.0034 20.222 18.8587 28.3146 18.1128 37.0718C17.3062 46.4721 20.9336 54.1145 25.5482 62.0218Z" fill="#E48340"/>
<path d="M47.4186 12.3317C62.0296 10.9056 75.0288 21.5982 76.448 36.2098C77.8672 50.8217 67.1684 63.8157 52.5559 65.2278C37.9534 66.6392 24.9701 55.9492 23.5519 41.3474C22.1337 26.7455 32.8174 13.7571 47.4186 12.3317Z" fill="#F7F6F6"/>
<path d="M30.7924 27.0721C30.7393 26.9841 30.6882 26.8995 30.6394 26.8193C28.8144 33.5444 31.4645 39.641 37.2364 43.3209C38.0997 43.8997 39.1245 44.407 40.1758 44.9273C42.6201 46.1372 45.2084 47.4184 46.2469 49.8364C47.5986 52.9841 45.2749 57.4606 44.3087 59.7736C43.3424 62.0867 43.4809 61.6857 43.139 62.5198C45.58 63.1301 47.6138 63.4352 50.1666 63.4352C50.1304 61.3037 50.1622 59.5924 50.1666 57.4606C50.1679 56.3635 50.1486 55.2921 50.1296 54.245C50.0112 47.6987 49.9099 42.0943 54.9993 37.016C54.9993 37.016 55.3285 36.6956 55.6383 36.4549C55.7834 36.3422 56.3988 35.9395 56.3988 35.9395C56.233 36.2712 55.8351 36.875 55.3146 37.4963C55.0758 37.7815 54.6476 38.3696 54.409 38.7585C54.1703 39.1474 53.8972 39.5876 53.8143 39.7534C53.7314 39.9193 53.4141 40.5825 53.2482 41.08C53.0824 41.5775 52.6808 43.4465 52.6535 43.7511C53.0824 43.0699 53.5513 42.4245 53.8143 42.0749C54.0773 41.7254 54.5242 41.1885 55.0722 40.5825C55.5436 40.0613 55.9402 39.765 56.253 39.5314C56.3038 39.4935 56.3525 39.4571 56.3988 39.4218C56.6353 39.2414 57.2934 38.8616 57.9956 38.4564C58.2781 38.2934 58.5678 38.1263 58.8399 37.9663C59.7887 37.4089 61.1208 36.6262 62.7534 34.7227C61.5518 37.071 60.0726 38.2557 58.5077 39.509C56.9373 40.7666 55.2807 42.0934 53.7317 44.7344C55.8294 42.6571 57.7933 41.7107 59.6583 40.8119C62.5217 39.432 65.1519 38.1644 67.675 33.0894C66.4389 38.9872 62.9758 40.8754 59.5394 42.749C56.8197 44.2318 54.1168 45.7055 52.5478 49.1506C50.9457 52.6679 52.9035 56.9116 54.5868 60.5604C54.9677 61.386 55.2545 62.0677 55.5629 62.8171C55.5629 62.8171 55.9493 62.7921 56.4316 62.6658C56.9138 62.5396 57.2966 62.3569 57.2966 62.3569C56.8986 61.2306 56.5569 60.5604 55.838 59.1504C55.1191 57.7405 54.4677 56.4629 54.0534 54.9139C52.4465 48.9023 56.3741 46.8411 60.6312 44.607C60.9627 44.4331 61.2932 44.2644 61.6214 44.0969C64.286 42.737 66.7922 41.458 68.3347 38.1101C69.4988 36.1054 70.6595 31.4623 69.6646 26.8445C66.8956 31.5239 63.2559 31.9929 59.7258 32.4479C56.072 32.9188 52.5356 33.3745 50.2034 38.4676C47.43 33.328 44.1893 32.8958 40.6519 32.424C38.1534 32.0908 35.507 31.7378 32.7725 29.6927C32.0469 29.1502 31.3183 27.9433 30.7924 27.0721Z" fill="#2E353C"/>
<path d="M32.6858 33.5186C36.7089 41.0761 41.0243 39.5648 46.3508 44.9546C43.9152 39.651 40.3693 39.8692 37.3583 34.6375C40.0861 37.3583 42.1233 38.1801 44.9208 40.6015C46.3744 41.8594 46.7836 43.3402 47.5835 44.2867L47.7686 43.7518C47.9845 44.7192 46.9282 46.4676 47.6824 47.3514L47.9099 47.4085C47.9264 47.883 47.7006 49.6069 47.6366 50.172C46.1177 41.7669 35.4921 44.2691 32.6858 33.5186Z" fill="#F7F6F6"/>
<path d="M43.9609 36.0864C48.727 39.5538 48.394 42.0607 47.9098 47.4084L47.6823 47.3514C46.9281 46.4675 47.9844 44.7191 47.7685 43.7517C46.8714 40.4446 46.4738 38.6009 43.9609 36.0864Z" fill="#F7F6F6"/>
</svg>
