<svg width="701" height="207" viewBox="0 0 701 207" fill="none" xmlns="http://www.w3.org/2000/svg">
<rect width="701" height="207" fill="#2E353C"/>
<path d="M224.62 123L237.42 88H246.42L259.17 123H249.67L247.27 116.3H235.57L233.17 123H224.62ZM238.12 109.4H244.72L241.42 99L238.12 109.4ZM279.041 124.5V121.5C275.575 121.5 272.575 120.833 270.041 119.5C267.541 118.167 265.608 116.3 264.241 113.9C262.875 111.5 262.191 108.7 262.191 105.5V104.5C262.191 101.633 262.875 99.0667 264.241 96.8C265.608 94.5333 267.541 92.75 270.041 91.45C272.575 90.15 275.575 89.5 279.041 89.5V86.5H287.791V89.5C291.258 89.5 294.258 90.15 296.791 91.45C299.325 92.75 301.275 94.5333 302.641 96.8C304.008 99.0667 304.691 101.633 304.691 104.5V105.5C304.691 108.7 304.008 111.5 302.641 113.9C301.275 116.3 299.325 118.167 296.791 119.5C294.258 120.833 291.258 121.5 287.791 121.5V124.5H279.041ZM295.391 105.5V104.5C295.391 102.767 295.091 101.35 294.491 100.25C293.891 99.15 293.025 98.3333 291.891 97.8C290.758 97.2667 289.391 97 287.791 97V114C289.458 114 290.841 113.717 291.941 113.15C293.075 112.583 293.925 111.683 294.491 110.45C295.091 109.183 295.391 107.533 295.391 105.5ZM271.491 104.5V105.5C271.491 107.533 271.775 109.183 272.341 110.45C272.908 111.683 273.758 112.583 274.891 113.15C276.025 113.717 277.408 114 279.041 114V97C277.441 97 276.075 97.2667 274.941 97.8C273.808 98.3333 272.941 99.15 272.341 100.25C271.775 101.35 271.491 102.767 271.491 104.5ZM307.649 123L320.449 88H329.449L342.199 123H332.699L330.299 116.3H318.599L316.199 123H307.649ZM321.149 109.4H327.749L324.449 99L321.149 109.4ZM348.43 123.65C348.163 123.65 347.78 123.633 347.28 123.6C346.813 123.6 346.446 123.567 346.18 123.5V115.6C346.28 115.633 346.53 115.65 346.93 115.65C347.596 115.65 348.163 115.567 348.63 115.4C349.13 115.2 349.546 114.8 349.88 114.2C350.213 113.567 350.496 112.65 350.73 111.45C350.996 110.25 351.18 108.65 351.28 106.65C351.38 104.617 351.43 102.067 351.43 99V88H377.93V123H368.88V95.35H359.83V100C359.83 104.167 359.663 107.667 359.33 110.5C358.996 113.3 358.496 115.567 357.83 117.3C357.196 119.033 356.413 120.367 355.48 121.3C354.546 122.2 353.48 122.817 352.28 123.15C351.113 123.483 349.83 123.65 348.43 123.65ZM386.355 123V88H395.355V109L409.105 88H417.355V123H408.355V102L394.605 123H386.355ZM425.844 123V88H434.844V101.3H447.844V88H456.844V123H447.844V108.7H434.844V123H425.844ZM462.282 123L475.082 88H484.082L496.832 123H487.332L484.932 116.3H473.232L470.832 123H462.282ZM475.782 109.4H482.382L479.082 99L475.782 109.4Z" fill="#F7F6F6"/>
<path d="M510.252 123V88H522.502C525.435 88 527.869 88.4667 529.802 89.4C531.769 90.3 533.252 91.55 534.252 93.15C535.252 94.7167 535.752 96.5 535.752 98.5C535.752 100.833 535.052 102.883 533.652 104.65C532.285 106.383 530.252 107.6 527.552 108.3L536.752 123H531.202L522.852 108.9H514.952V123H510.252ZM514.952 104.9H522.002C525.235 104.9 527.552 104.317 528.952 103.15C530.352 101.95 531.052 100.4 531.052 98.5C531.052 96.6 530.352 95.0667 528.952 93.9C527.552 92.7 525.235 92.1 522.002 92.1H514.952V104.9ZM544.236 123V88H566.736V92.1H548.936V102.95H565.236V107.05H548.936V118.9H566.736V123H544.236ZM574.754 123V88H579.354L598.154 115.25V88H602.754V123H598.154L579.354 95.75V123H574.754ZM620.892 123V92.1H608.742V88H637.742V92.1H625.592V123H620.892Z" fill="#E48340"/>
<line x1="284" y1="152.5" x2="586" y2="152.5" stroke="#F7F6F6" stroke-width="3"/>
<rect x="17" y="15" width="177" height="177" rx="6" fill="#F7F6F6"/>
<g filter="url(#filter0_d_273_959)">
<path d="M62.9734 123.562C64.4408 126.05 65.9583 128.508 67.5251 130.933C68.3057 132.153 69.2216 133.717 70.1476 134.799C70.9675 136.12 85.4184 155.019 86.4042 156.205C88.7051 159.342 91.6221 162.531 94.1201 165.518L94.4304 165.889C97.8835 170.019 101.303 174.108 105.015 178.007C109.937 172.744 114.528 167.191 119.163 161.668C134.516 143.371 157.537 114.233 159.777 89.957C161.125 75.3535 156.286 60.5162 147.142 49.2703C137.801 37.7993 124.363 30.5837 109.793 29.2148C95.3746 27.8945 81.0377 32.5117 69.9863 42.0349C58.5995 51.7184 51.4758 65.6277 50.1939 80.679C48.8075 96.8359 55.0421 109.971 62.9734 123.562Z" fill="#2E353C"/>
<path d="M100.563 38.157C125.676 35.706 148.018 54.0838 150.458 79.1975C152.897 104.312 134.508 126.645 109.393 129.072C84.2949 131.498 61.98 113.125 59.5424 88.0277C57.1048 62.9308 75.4675 40.6069 100.563 38.157Z" fill="#F7F6F6"/>
<path d="M71.987 63.4918C71.8957 63.3405 71.8079 63.1951 71.7241 63.0574C68.5873 74.6161 73.1423 85.0946 83.0627 91.4195C84.5465 92.4143 86.3078 93.2861 88.1148 94.1805C92.3159 96.26 96.7646 98.462 98.5494 102.618C100.873 108.028 96.8788 115.722 95.2181 119.698C93.5574 123.673 93.7954 122.984 93.2077 124.418C97.4033 125.466 100.899 125.991 105.286 125.991C105.224 122.327 105.279 119.386 105.286 115.722C105.289 113.836 105.255 111.995 105.223 110.195C105.019 98.9438 104.845 89.3112 113.593 80.583C113.593 80.583 114.158 80.0323 114.691 79.6185C114.94 79.4248 115.998 78.7327 115.998 78.7327C115.713 79.3027 115.029 80.3405 114.135 81.4084C113.724 81.8985 112.988 82.9094 112.578 83.5778C112.168 84.2462 111.698 85.0028 111.556 85.2879C111.413 85.5729 110.868 86.7129 110.583 87.5679C110.298 88.4229 109.608 91.6353 109.561 92.1588C110.298 90.988 111.104 89.8787 111.556 89.2779C112.008 88.6772 112.776 87.7544 113.718 86.7129C114.528 85.8169 115.21 85.3078 115.747 84.9063C115.835 84.841 115.918 84.7786 115.998 84.7178C116.405 84.4079 117.536 83.7551 118.743 83.0586C119.228 82.7784 119.726 82.4912 120.194 82.2163C121.824 81.2582 124.114 79.9129 126.92 76.6413C124.855 80.6774 122.312 82.7136 119.623 84.8677C116.924 87.0293 114.076 89.3097 111.414 93.8489C115.019 90.2786 118.395 88.6519 121.6 87.1071C126.522 84.7354 131.043 82.5568 135.379 73.834C133.254 83.9709 127.302 87.2162 121.396 90.4365C116.722 92.9851 112.076 95.518 109.379 101.439C106.625 107.485 109.99 114.778 112.884 121.05C113.538 122.469 114.031 123.64 114.561 124.929C114.561 124.929 115.226 124.885 116.054 124.669C116.883 124.452 117.541 124.138 117.541 124.138C116.857 122.202 116.27 121.05 115.034 118.626C113.799 116.203 112.679 114.007 111.967 111.345C109.205 101.012 115.956 97.4698 123.273 93.63C123.842 93.331 124.41 93.0411 124.974 92.7532C129.554 90.4159 133.862 88.2175 136.513 82.4634C138.514 79.0177 140.509 71.0375 138.799 63.1007C134.039 71.1433 127.784 71.9495 121.716 72.7314C115.436 73.5408 109.358 74.3241 105.35 83.0779C100.583 74.2442 95.0129 73.5013 88.933 72.6904C84.6388 72.1177 80.0902 71.5111 75.3904 67.9959C74.1432 67.0636 72.8909 64.9891 71.987 63.4918Z" fill="#E48340"/>
<path d="M75.2411 74.5723C82.1559 87.5617 89.5729 84.9642 98.7279 94.228C94.5417 85.1124 88.4471 85.4874 83.272 76.4955C87.9604 81.1719 91.4619 82.5844 96.27 86.746C98.7684 88.9081 99.4718 91.4532 100.847 93.08L101.165 92.1606C101.536 93.8233 99.7203 96.8284 101.016 98.3475L101.408 98.4455C101.436 99.2612 101.048 102.224 100.938 103.195C98.3272 88.749 80.0645 93.0498 75.2411 74.5723Z" fill="#F7F6F6"/>
<path d="M94.6203 78.9858C102.812 84.9453 102.24 89.254 101.407 98.4455L101.016 98.3475C99.7202 96.8284 101.536 93.8233 101.165 92.1605C99.6228 86.4764 98.9393 83.3077 94.6203 78.9858Z" fill="#F7F6F6"/>
</g>
<defs>
<filter id="filter0_d_273_959" x="47" y="28.9932" width="116" height="156.014" filterUnits="userSpaceOnUse" color-interpolation-filters="sRGB">
<feFlood flood-opacity="0" result="BackgroundImageFix"/>
<feColorMatrix in="SourceAlpha" type="matrix" values="0 0 0 0 0 0 0 0 0 0 0 0 0 0 0 0 0 0 127 0" result="hardAlpha"/>
<feOffset dy="4"/>
<feGaussianBlur stdDeviation="1.5"/>
<feComposite in2="hardAlpha" operator="out"/>
<feColorMatrix type="matrix" values="0 0 0 0 0.180392 0 0 0 0 0.207843 0 0 0 0 0.235294 0 0 0 0.5 0"/>
<feBlend mode="normal" in2="BackgroundImageFix" result="effect1_dropShadow_273_959"/>
<feBlend mode="normal" in="SourceGraphic" in2="effect1_dropShadow_273_959" result="shape"/>
</filter>
</defs>
</svg>
